<svg width="28" height="33" viewBox="0 0 28 33" fill="none" xmlns="http://www.w3.org/2000/svg">
<path fill-rule="evenodd" clip-rule="evenodd" d="M6.15149 9.08334V8.88355C6.15149 5.27064 8.5962 2.11608 12.0934 1.21632C13.3861 0.883745 14.7418 0.883745 16.0345 1.21632C19.5317 2.11608 21.9764 5.27065 21.9764 8.88355V9.08334H24.4769C25.4285 9.08334 26.2362 9.78165 26.3741 10.7237L26.7384 13.2111C27.4556 18.1086 27.4556 23.0844 26.7384 27.9819C26.3921 30.3469 24.4859 32.1753 22.1096 32.4219L21.0621 32.5306C16.4091 33.0134 11.7187 33.0134 7.06578 32.5306L6.01823 32.4219C3.64193 32.1753 1.7358 30.3469 1.38945 27.9819C0.672265 23.0844 0.672265 18.1086 1.38945 13.2111L1.75372 10.7237C1.89168 9.78164 2.69932 9.08334 3.65095 9.08334H6.15149ZM12.7157 3.63755C13.6001 3.41 14.5277 3.41 15.4122 3.63755C17.805 4.25318 19.4777 6.41157 19.4777 8.88355V9.08334H8.65016V8.88355C8.65016 6.41156 10.3229 4.25318 12.7157 3.63755ZM6.15149 11.5833V15.3333C6.15149 16.0237 6.71084 16.5833 7.40082 16.5833C8.09081 16.5833 8.65016 16.0237 8.65016 15.3333V11.5833H19.4777V15.3333C19.4777 16.0237 20.0371 16.5833 20.727 16.5833C21.417 16.5833 21.9764 16.0237 21.9764 15.3333V11.5833H23.9747L24.2661 13.5736C24.9481 18.2307 24.9481 22.9623 24.2661 27.6194C24.0855 28.853 23.0913 29.8066 21.8519 29.9352L20.8043 30.0439C16.3227 30.5089 11.8051 30.5089 7.32352 30.0439L6.27597 29.9352C5.03655 29.8066 4.04237 28.853 3.86172 27.6194C3.17973 22.9623 3.17973 18.2307 3.86172 13.5736L4.15318 11.5833H6.15149Z" fill="black"/>
</svg>
