<svg width="30" height="35" viewBox="0 0 30 35" fill="none" xmlns="http://www.w3.org/2000/svg">
<ellipse cx="15" cy="17.5" rx="15" ry="17.5" fill="black"/>
<path d="M15.1094 26.2656C13.875 26.2604 12.8203 25.9349 11.9453 25.2891C11.0703 24.6432 10.401 23.7031 9.9375 22.4687C9.47396 21.2344 9.24219 19.7474 9.24219 18.0078C9.24219 16.2734 9.47396 14.7917 9.9375 13.5625C10.4063 12.3333 11.0781 11.3958 11.9531 10.75C12.8333 10.1042 13.8854 9.78125 15.1094 9.78125C16.3333 9.78125 17.3828 10.1068 18.2578 10.7578C19.1328 11.4036 19.8021 12.3411 20.2656 13.5703C20.7344 14.7943 20.9687 16.2734 20.9687 18.0078C20.9687 19.7526 20.737 21.2422 20.2734 22.4766C19.8099 23.7057 19.1406 24.6458 18.2656 25.2969C17.3906 25.9427 16.3385 26.2656 15.1094 26.2656ZM15.1094 24.1797C16.1927 24.1797 17.0391 23.651 17.6484 22.5937C18.263 21.5365 18.5703 20.0078 18.5703 18.0078C18.5703 16.6797 18.4297 15.5573 18.1484 14.6406C17.8724 13.7187 17.474 13.0208 16.9531 12.5469C16.4375 12.0677 15.8229 11.8281 15.1094 11.8281C14.0313 11.8281 13.1849 12.3594 12.5703 13.4219C11.9557 14.4844 11.6458 16.013 11.6406 18.0078C11.6406 19.3411 11.7786 20.4688 12.0547 21.3906C12.3359 22.3073 12.7344 23.0026 13.25 23.4766C13.7656 23.9453 14.3854 24.1797 15.1094 24.1797Z" fill="white"/>
</svg>
