<?xml version="1.0" encoding="UTF-8"?><svg id="_레이어_2" xmlns="http://www.w3.org/2000/svg" viewBox="0 0 28.36 28.62"><defs><style>.cls-1{fill:#fff;stroke-width:0px;}</style></defs><g id="_레이어_1-2"><path class="cls-1" d="m28.34,14.26c0,3.15-.05,6.3.02,9.44.04,1.94-1.38,3.9-3.26,4.59-.85.31-1.73.42-2.63.28-.19-.03-.39-.02-.59-.02-5.15,0-10.29,0-15.44,0-.9,0-1.8.13-2.7-.12C1.61,27.81.05,25.86,0,23.65c0-.34.13-.68.13-1.02,0-5.74.07-11.47-.02-17.21C.08,3.25.92,1.73,2.69.64,3.4.21,4.2,0,5.03,0,11.21,0,17.38,0,23.56,0c1.88,0,3.68,1.39,4.47,3.33.24.58.32,1.14.31,1.75-.01,3.06,0,6.11,0,9.17Zm-26.62.03c0,2.92.06,5.84-.02,8.76-.05,1.56,1.3,3.2,2.75,3.59.78.21,1.53.05,2.29.05,5.04-.02,10.08,0,15.12,0,.14,0,.27.03.41.02.58-.03,1.18.01,1.73-.12,1.5-.36,2.72-2.09,2.71-3.57-.05-5.52-.02-11.05-.02-16.57,0-.53-.02-1.06-.09-1.58-.19-1.35-.91-2.34-2.12-2.98-.67-.35-1.38-.36-2.11-.36-5.64.02-11.29.01-16.93,0-.71,0-1.35.18-1.93.57-1.22.81-1.82,1.92-1.79,3.44.05,2.92.02,5.84.02,8.76Z"/><path class="cls-1" d="m13.97,23.06c-4.72.04-8.68-3.9-8.5-8.82.17-4.64,3.84-8.28,8.54-8.24,4.82.03,8.51,3.74,8.53,8.52.02,4.98-3.99,8.6-8.56,8.55Zm.04-1.64c3.53.05,6.87-2.83,6.92-6.83.05-3.86-3.11-7.02-6.94-7.03-3.72,0-6.87,3.15-6.92,6.86-.05,3.82,3.13,7.04,6.93,6.99Z"/><path class="cls-1" d="m22.65,3.95c1.05,0,1.86.82,1.86,1.87,0,1.04-.84,1.89-1.86,1.89-1.03,0-1.88-.85-1.88-1.88,0-1.04.84-1.88,1.87-1.87Z"/></g></svg>