<svg width="30" height="30" viewBox="0 0 30 30" fill="none" xmlns="http://www.w3.org/2000/svg">
<path fill-rule="evenodd" clip-rule="evenodd" d="M19.0689 20.7429C14.6542 24.2806 8.1919 24.0022 4.09944 19.9076C-0.291611 15.5142 -0.291611 8.39105 4.09944 3.99765C8.49049 -0.395744 15.6098 -0.395743 20.0008 3.99765C24.0933 8.09229 24.3716 14.558 20.8357 18.9751L29.4239 27.5678C29.9118 28.056 29.9118 28.8474 29.4239 29.3356C28.936 29.8238 28.145 29.8238 27.6571 29.3356L19.0689 20.7429ZM5.86626 18.1398C2.451 14.7227 2.451 9.18251 5.86626 5.76542C9.28153 2.34833 14.8188 2.34833 18.234 5.76542C21.6468 9.18 21.6493 14.7146 18.2415 18.1323C18.239 18.1347 18.2365 18.1372 18.234 18.1397C18.2315 18.1423 18.229 18.1448 18.2265 18.1473C14.8106 21.5569 9.27903 21.5544 5.86626 18.1398Z" fill="black"/>
</svg>
