<svg width="50" height="50" viewBox="0 0 50 50" fill="none" xmlns="http://www.w3.org/2000/svg">
<circle cx="25" cy="25" r="25" fill="black"/>
<path d="M35.3719 27.7472C35.2401 27.8789 35.0614 27.9529 34.875 27.9529C34.6887 27.9529 34.51 27.8789 34.3782 27.7472L25.5 18.8703L16.6219 27.7472C16.4886 27.8714 16.3123 27.939 16.1302 27.9358C15.948 27.9326 15.7742 27.8588 15.6454 27.73C15.5166 27.6012 15.4428 27.4274 15.4396 27.2452C15.4363 27.0631 15.504 26.8868 15.6282 26.7535L25.0032 17.3785C25.135 17.2468 25.3137 17.1729 25.5 17.1729C25.6864 17.1729 25.8651 17.2468 25.9969 17.3785L35.3719 26.7535C35.5036 26.8853 35.5775 27.064 35.5775 27.2504C35.5775 27.4367 35.5036 27.6154 35.3719 27.7472Z" fill="white"/>
</svg>
